PathFileType	4	(X/Y/Z)	s04c0202.trc
DataRate	CameraRate	NumFrames	NumMarkers	Units	OrigDataRate	OrigDataStartFrame	OrigNumFrames
200	200	5	50	mm	200	1750	2000
Frame#	Time	racr			lacr			c7			jug			rlel			rdr			llel			ldr			s2			lic			ric			lasi			rasi			rpsi			lpsi			rgt			lgt			rth1			rth2			rth3			rth4			rlfc			rmfc			rsh1			rsh2			rsh3			rsh4			rlmal			rmmal			rcal			rtoe			rmt5			lth1			lth2			lth4			lth3			llfc			lmfc			lsh1			lsh2			lsh3			lsh4			llmal			lmmal			lcal			ltoe			lmt5			SBIKE			LBIKE			RBIKE			
		X1	Y1	Z1	X2	Y2	Z2	X3	Y3	Z3	X4	Y4	Z4	X5	Y5	Z5	X6	Y6	Z6	X7	Y7	Z7	X8	Y8	Z8	X9	Y9	Z9	X10	Y10	Z10	X11	Y11	Z11	X12	Y12	Z12	X13	Y13	Z13	X14	Y14	Z14	X15	Y15	Z15	X16	Y16	Z16	X17	Y17	Z17	X18	Y18	Z18	X19	Y19	Z19	X20	Y20	Z20	X21	Y21	Z21	X22	Y22	Z22	X23	Y23	Z23	X24	Y24	Z24	X25	Y25	Z25	X26	Y26	Z26	X27	Y27	Z27	X28	Y28	Z28	X29	Y29	Z29	X30	Y30	Z30	X31	Y31	Z31	X32	Y32	Z32	X33	Y33	Z33	X34	Y34	Z34	X35	Y35	Z35	X36	Y36	Z36	X37	Y37	Z37	X38	Y38	Z38	X39	Y39	Z39	X40	Y40	Z40	X41	Y41	Z41	X42	Y42	Z42	X43	Y43	Z43	X44	Y44	Z44	X45	Y45	Z45	X46	Y46	Z46	X47	Y47	Z47	X48	Y48	Z48	X49	Y49	Z49	X50	Y50	Z50	
1750	8.7500	518.500197	1293.199341	-109.886422	548.416378	1306.280370	-375.340451	511.470809	1367.824220	-250.891583	466.650515	1214.762825	-270.776126	469.860523	1039.858696	79.836736	702.258315	956.050857	-72.146021	504.573458	1109.954678	-592.729676	666.473529	905.187930	-472.044976	-64.302114	1176.059099	-302.318346	96.423287	1189.000887	-451.474306	71.220807	1193.200629	-130.397784	135.576257	1139.715757	-406.952247	120.908188	1153.804194	-174.857411	-42.216764	1223.665327	-259.728176	-34.726864	1222.951886	-333.845031	34.520603	1142.750893	-113.031134	57.987314	1085.863610	-478.187924	168.112895	1052.910956	-103.142885	253.269266	1030.861682	-111.235079	316.084916	974.363053	-112.104625	268.174170	1061.765837	-127.860938	431.190718	882.481566	-137.216793	415.442491	858.902920	-248.896310	380.230502	770.736127	-112.069546	366.433515	680.745299	-124.131209	309.563363	616.237030	-128.614694	397.157620	671.723942	-147.427541	259.043181	473.147522	-133.015819	277.724250	482.625592	-217.880016	187.377474	436.504507	-170.967897	486.683378	438.638087	-163.578959	423.053841	409.120866	-106.320484	110.585668	1006.298443	-493.854289	182.532881	958.101751	-500.124221	209.433387	980.950311	-491.544378	221.845280	878.419496	-506.957066	299.722984	740.359715	-488.497138	328.786628	712.358016	-380.018855	246.522586	630.413172	-506.375661	212.989939	554.298800	-479.954245	143.359064	499.432436	-474.540070	236.972500	542.578727	-450.926091	50.817484	382.778836	-459.727913	51.036061	387.175883	-372.046284	-23.773884	409.219004	-415.631013	201.854068	204.746709	-414.035112	123.517345	220.506481	-475.150733	-184.892297	931.771355	-287.100058	-17.461751	79.262974	-485.507928	-17.458432	79.320041	-84.819490	
1751	8.7550	518.801941	1293.401313	-110.211049	547.915106	1306.949649	-375.870706	511.195410	1368.021790	-251.169627	466.860972	1214.800260	-270.986653	469.975886	1040.257140	79.903159	701.934442	955.936553	-72.168402	503.609601	1108.637110	-591.198405	666.325368	904.687083	-471.582606	-64.693691	1174.673975	-302.628729	96.733928	1188.472878	-450.743460	71.463537	1191.262151	-129.587397	135.957853	1139.608135	-406.298580	121.245512	1151.898593	-174.251269	-42.487342	1221.836480	-259.350405	-34.636952	1221.758367	-333.829127	34.779443	1138.273093	-112.570632	59.633976	1085.554937	-478.288290	168.108707	1046.100642	-102.993010	253.017063	1022.840592	-111.223444	314.903705	964.844677	-113.650501	268.464864	1053.895037	-126.971222	428.173734	872.348843	-138.015626	412.335003	848.892842	-249.358647	378.158546	760.866777	-112.849041	366.061717	670.576827	-124.862756	310.503933	604.977617	-129.247188	397.092944	662.029902	-148.106759	262.074476	461.087538	-133.478901	280.673035	470.431264	-218.402412	191.502532	422.967607	-171.804637	490.328807	429.669451	-163.699771	426.964310	399.361623	-106.478019	113.694653	1007.272105	-492.749343	186.369666	960.404588	-499.084297	212.792370	983.527192	-489.807358	226.991990	881.384743	-506.341645	305.915167	745.104196	-487.797057	334.232184	717.416528	-378.828273	251.279507	636.685197	-505.900383	216.215715	561.486321	-479.504999	145.379257	508.056050	-473.994425	239.888157	549.218982	-450.384521	50.516868	393.561185	-459.171886	50.892209	397.527245	-371.861512	-23.454987	421.586337	-415.056660	196.567935	210.864907	-413.183157	119.284537	229.672138	-475.117160	-184.918196	931.904898	-287.618566	-17.465116	79.218685	-485.515041	-17.464771	79.313878	-84.841772	
1752	8.7600	519.095266	1293.638773	-110.623153	547.365208	1307.530229	-376.406872	510.971445	1368.274247	-251.526516	466.907601	1214.955949	-271.275007	470.117963	1040.666835	79.886385	701.662320	955.904470	-72.298690	502.647489	1107.210977	-589.566851	666.302366	904.202295	-471.180945	-65.383327	1173.980418	-303.256552	97.062322	1187.936094	-450.143400	72.351558	1189.293782	-128.078368	136.210318	1139.424129	-405.416226	121.663871	1150.002663	-173.643023	-42.469369	1220.144653	-258.902251	-34.232945	1220.391887	-334.339953	35.134786	1133.845482	-112.061625	61.355646	1085.278565	-478.335800	168.143152	1039.685685	-102.835843	252.644782	1015.183118	-111.350910	313.444136	955.991931	-114.439296	268.686129	1046.348967	-126.353007	424.693684	863.650333	-138.743149	408.875285	840.205865	-250.340855	376.061187	751.006673	-113.541508	365.733046	660.644887	-125.635076	310.873417	594.186910	-129.675700	396.707413	652.531910	-148.545492	264.925948	449.407922	-133.826775	283.309057	458.824249	-218.849317	194.229561	411.877441	-170.394671	493.671770	420.173003	-163.851954	430.648558	389.277311	-106.833159	116.560596	1008.433154	-492.270500	189.992914	962.714033	-498.104439	215.952916	986.052027	-488.087983	231.834648	884.413262	-505.779724	311.729743	749.944723	-487.183576	339.515082	721.961308	-378.339758	255.725948	643.019407	-505.534278	219.326134	568.566289	-478.952743	147.385454	516.481443	-473.411879	242.693345	555.843933	-449.855811	50.470246	404.287096	-458.590716	50.751821	407.887103	-371.649869	-22.945629	433.818194	-414.523035	192.474820	218.495844	-413.238445	115.679628	239.113460	-475.168419	-184.984053	931.782191	-287.526342	-17.462704	79.203531	-485.536991	-17.460505	79.301991	-84.847675	
1753	8.7650	519.467281	1293.881570	-110.896491	546.906330	1308.107338	-377.022489	510.812034	1368.567177	-251.868820	467.034545	1215.144978	-271.524492	470.328474	1041.132339	79.767759	701.457531	955.900645	-72.452635	501.605439	1105.283463	-587.580204	666.333016	903.652696	-470.816387	-65.434252	1172.642941	-303.045582	97.247433	1187.255149	-449.326367	72.672579	1187.484200	-127.306478	136.437745	1139.175834	-404.587234	122.154447	1148.409448	-172.932612	-42.746140	1218.399470	-258.238232	-33.918811	1219.316301	-334.568037	35.571440	1129.527644	-111.625588	62.972431	1085.062816	-478.292588	168.061919	1033.719583	-102.527775	252.247687	1008.005773	-110.906207	312.056919	948.041021	-115.271945	268.835599	1038.919204	-125.765157	421.521650	855.416177	-139.225704	405.081701	832.119177	-251.256389	374.004345	741.528758	-114.117106	364.857922	650.928083	-126.088049	310.945966	583.661506	-130.119670	395.872503	643.070886	-148.882002	267.363979	438.146498	-133.952472	285.985548	447.686978	-219.414960	197.478141	398.708249	-171.589393	496.613909	410.085205	-163.955566	433.718268	378.981127	-106.970667	119.205310	1009.726722	-491.729438	193.372894	965.122644	-497.149402	218.812990	988.707974	-486.537501	236.427562	887.524488	-505.382308	317.493464	754.653972	-486.489255	344.777338	726.542707	-377.309510	259.929606	649.363426	-505.112983	222.312095	575.617455	-478.522529	149.482845	524.804641	-472.760249	245.250046	562.516511	-449.335070	50.633779	414.803605	-457.980613	49.490263	417.579477	-370.915482	-21.987609	445.854031	-414.220782	189.015218	226.594561	-413.197745	112.659669	248.785146	-475.197201	-185.021125	931.754739	-287.600650	-17.469141	79.177680	-485.545993	-17.458526	79.293687	-84.852053	
1754	8.7700	519.804258	1294.193666	-111.153842	546.596069	1308.665438	-377.654288	510.675595	1368.836952	-252.226919	467.304361	1215.271216	-271.739898	470.605536	1041.599974	79.634524	701.373618	955.853176	-72.691721	500.878723	1104.003663	-586.064026	666.446232	903.213293	-470.510888	-65.477020	1171.357519	-302.736232	97.368229	1186.733178	-448.619424	72.985689	1185.809303	-126.521955	136.643565	1138.958865	-403.874802	122.646459	1147.010273	-172.263885	-42.892577	1216.708771	-257.448509	-38.065919	1219.132456	-331.939212	36.042754	1125.723289	-111.279516	64.597326	1084.900688	-478.171472	167.941601	1028.892409	-102.341295	251.379355	1001.277165	-111.360994	309.919563	940.108656	-115.704845	268.687076	1031.996051	-125.307763	418.036712	846.861381	-140.308460	401.297161	824.047257	-252.073130	371.746147	732.308835	-114.655289	363.746172	641.620746	-126.462230	310.929551	573.550603	-130.449704	394.394708	633.991108	-149.146254	269.502752	427.023499	-133.798030	288.057755	437.255737	-218.592524	199.873406	387.243909	-171.340850	499.071662	399.699660	-164.173614	436.549047	368.621147	-107.177553	121.626841	1011.073181	-491.171632	196.443534	967.641737	-496.320930	221.445372	991.423895	-485.116060	240.727875	890.704252	-505.060687	323.146979	759.467026	-485.928210	349.823130	731.109141	-376.760781	263.945787	655.824461	-504.676671	225.194352	582.625696	-477.919281	151.584587	533.206432	-472.223379	247.920665	569.301255	-448.843802	51.013269	425.366620	-457.387201	50.686729	427.912242	-370.531336	-21.294808	457.585974	-413.107953	186.279307	235.241004	-413.270446	110.185527	258.564039	-475.170622	-185.012968	931.693426	-287.532616	-17.470694	79.157520	-485.542114	-17.443979	79.302185	-84.844491	
